<svg preserveAspectRatio="none" width="100%" height="100%" overflow="visible" style="display: block;" viewBox="0 0 25 25" fill="none" xmlns="http://www.w3.org/2000/svg">
<path id="Vector" d="M1.69141 0.5H6.3584C6.64225 0.500081 6.85365 0.586371 7.02637 0.749023C7.21926 0.930599 7.36494 1.17951 7.4502 1.51953L8.33984 5.54785C8.38677 5.87583 8.37698 6.14647 8.32422 6.36816C8.27517 6.57421 8.17619 6.74619 8.02051 6.89453L8.01465 6.90137L4.65723 10.2119L4.37793 10.4873L4.57812 10.8242C5.14393 11.7751 5.74494 12.6651 6.38086 13.4941C7.01958 14.3269 7.72876 15.119 8.50781 15.8701C9.3214 16.7103 10.1717 17.4724 11.0586 18.1553C11.9515 18.8428 12.8842 19.4442 13.8564 19.959L14.1875 20.1348L14.4492 19.8662L17.6553 16.5762L17.665 16.5654C17.8692 16.3439 18.0897 16.2053 18.3291 16.1338L18.3301 16.1348C18.5241 16.0772 18.7175 16.0552 18.9121 16.0693L19.1074 16.0957L22.8809 16.9307C23.2059 17.0212 23.4506 17.1806 23.6357 17.4043C23.8167 17.6228 23.9062 17.8701 23.9062 18.167V22.7148C23.9062 23.0726 23.7915 23.3456 23.5664 23.5684C23.3386 23.7937 23.0653 23.9062 22.7148 23.9062C20.1872 23.9062 17.6034 23.299 14.959 22.0703C12.3154 20.8421 9.85799 19.0963 7.58789 16.8262C5.45988 14.6981 3.79161 12.4043 2.57715 9.94531L2.33984 9.45215L2.11621 8.95605C1.03467 6.48164 0.5 4.06372 0.5 1.69922C0.500021 1.38614 0.587812 1.13671 0.760742 0.927734L0.839844 0.84082C1.06479 0.614642 1.33735 0.5 1.69141 0.5ZM1.78711 2.30078C1.82782 3.23907 1.97537 4.22542 2.22656 5.25879C2.4793 6.29843 2.8767 7.44921 3.41309 8.70801L3.70215 9.38672L4.22559 8.86621L6.91699 6.18848L7.11035 5.99609L7.05371 5.72949L6.29492 2.1748L6.21094 1.7793H1.76465L1.78711 2.30078ZM22.6279 18.1787L22.2285 18.0967L18.915 17.4111L18.6436 17.3545L18.4521 17.5557L15.835 20.2988L15.3535 20.8027L15.9854 21.0967C16.9015 21.5229 17.8955 21.8694 18.9658 22.1377C20.0374 22.4062 21.0833 22.5676 22.1025 22.6191L22.6279 22.6455V18.1787Z" fill="var(--fill-0, #0C0801)" stroke="var(--stroke-0, #0C0801)"/>
</svg>
