<svg preserveAspectRatio="none" width="100%" height="100%" overflow="visible" style="display: block;" viewBox="0 0 22 27" fill="none" xmlns="http://www.w3.org/2000/svg">
<path id="Vector" d="M10.8662 0.5C13.6086 0.500049 16.0197 1.45626 18.1191 3.3877C20.1897 5.29248 21.2401 7.85016 21.2402 11.1162C21.2402 12.4554 20.9452 13.7926 20.3467 15.1299C19.737 16.4923 18.9715 17.7963 18.0508 19.043C17.124 20.2979 16.1173 21.4691 15.0303 22.5566C13.9311 23.6565 12.9055 24.6303 11.9541 25.4775L11.9492 25.4824L11.9434 25.4873C11.8044 25.6188 11.6443 25.714 11.458 25.7744C11.2474 25.8427 11.047 25.875 10.8555 25.875C10.6641 25.875 10.4685 25.8426 10.2666 25.7754C10.0884 25.7161 9.93556 25.623 9.80273 25.4932L9.79395 25.4844L9.78418 25.4766L9.05371 24.8174C8.30979 24.1349 7.52531 23.3813 6.70117 22.5566C5.61423 21.4692 4.60734 20.2978 3.68066 19.043C2.76015 17.7964 1.99656 16.492 1.38965 15.1299C0.79376 13.7926 0.5 12.4556 0.5 11.1162C0.500098 7.84999 1.54922 5.29243 3.61719 3.3877C5.71393 1.45639 8.12374 0.5 10.8662 0.5ZM10.8652 1.7793C8.32767 1.7794 6.16462 2.65385 4.4082 4.40039C2.64359 6.15521 1.77158 8.40836 1.77148 11.1162C1.77148 12.9632 2.54392 14.9841 4.00684 17.1631C5.47023 19.3425 7.64819 21.7709 10.5254 24.4473L10.8613 24.7607L11.2021 24.4512C14.1471 21.7795 16.3455 19.3497 17.7783 17.1621C19.2073 14.9803 19.9609 12.9599 19.9609 11.1162C19.9608 8.40823 19.088 6.15525 17.3232 4.40039C15.5663 2.65379 13.403 1.7793 10.8652 1.7793ZM10.8633 8.97656C11.3952 8.97663 11.8341 9.15809 12.208 9.53027C12.5812 9.90191 12.7627 10.3395 12.7627 10.8711C12.7627 11.4032 12.5815 11.84 12.21 12.2109C11.8386 12.5817 11.4015 12.7627 10.8691 12.7627C10.3362 12.7627 9.89898 12.5826 9.52832 12.2139C9.15828 11.8452 8.97656 11.4094 8.97656 10.877C8.97657 10.3439 9.15668 9.904 9.52637 9.53027L9.52734 9.53125C9.89619 9.15887 10.3318 8.97656 10.8633 8.97656Z" fill="var(--fill-0, #0C0801)" stroke="var(--stroke-0, #0C0801)"/>
</svg>
