<svg preserveAspectRatio="none" width="100%" height="100%" overflow="visible" style="display: block;" viewBox="0 0 28 22" fill="none" xmlns="http://www.w3.org/2000/svg">
<path id="Vector" d="M2.27148 0.5H24.7939C25.2713 0.5 25.68 0.669072 26.042 1.03125C26.4042 1.39325 26.5732 1.80194 26.5732 2.2793V19.4688C26.5732 19.9433 26.404 20.3494 26.042 20.71C25.6801 21.0707 25.2719 21.2402 24.7939 21.2402H2.27148C1.8558 21.2402 1.49268 21.1107 1.16699 20.8369L1.0293 20.7109C0.668656 20.3505 0.5 19.9439 0.5 19.4688V2.2793C0.5 1.80152 0.668732 1.39303 1.0293 1.03125H1.03027C1.39088 0.669222 1.79695 0.5 2.27148 0.5ZM1.77148 2.43945V19.9688H25.2939V3.36816L24.5195 3.87793L13.8984 10.8701C13.8131 10.9149 13.7374 10.951 13.6699 10.9775C13.6487 10.9859 13.6058 10.9971 13.5322 10.9971C13.459 10.997 13.4167 10.9859 13.3955 10.9775C13.3278 10.9509 13.2517 10.9151 13.166 10.8701L2.77148 4.02637V3.09473L13.2588 9.96387L13.5322 10.1436L13.8057 9.96387L24.9346 2.69727L26.3408 1.7793H0.761719L1.77148 2.43945Z" fill="var(--fill-0, #0C0801)" stroke="var(--stroke-0, #0C0801)"/>
</svg>
