<?xml version="1.0" encoding="UTF-8"?>
<!DOCTYPE svg PUBLIC "-//W3C//DTD SVG 1.1//EN" "http://www.w3.org/Graphics/SVG/1.1/DTD/svg11.dtd">
<!-- Creator: CorelDRAW -->
<svg xmlns="http://www.w3.org/2000/svg" xml:space="preserve" width="60mm" height="65mm" style="shape-rendering:geometricPrecision; text-rendering:geometricPrecision; image-rendering:optimizeQuality; fill-rule:evenodd; clip-rule:evenodd"
viewBox="0 0 60 65"
 xmlns:xlink="http://www.w3.org/1999/xlink">
 <defs>
  <style type="text/css">
   <![CDATA[
    .fil0 {fill:#103548}
    .fil2 {fill:#D5AB60}
    .fil1 {fill:#EBA63E}
   ]]>
  </style>
 </defs>
 <g id="Capa_x0020_1">
  <metadata id="CorelCorpID_0Corel-Layer"/>
  <g id="_211116208">
   <path id="_211117888" class="fil0" d="M10.9781 59.3879l0.0006 -2.2402 4.9269 0.0004c-0.094,0.3033 -0.4117,0.8816 -0.5661,1.183 -0.7788,1.5193 -0.3681,1.0444 -4.3614,1.0568zm33.0232 -2.2624l4.9717 0.0003 0 2.2601 -3.5009 0.0014c-0.4834,0 -0.6485,-0.5818 -0.8441,-0.9728 -0.2083,-0.4164 -0.448,-0.8526 -0.6267,-1.289zm-38.8126 -10.3506l49.5296 -0.0002c0.1862,2.925 -0.4147,4.6334 -1.9367,6.1212 -1.9412,1.8976 -3.814,1.8807 -6.3287,1.8807l-32.9287 0c-3.0932,0 -4.6657,-0.1952 -6.3541,-1.8547 -1.4999,-1.4742 -2.1752,-3.2423 -1.9814,-6.147zm-0.0062 -5.8095l49.5827 0.0261 -0.0025 3.3394 -49.5804 -0.0066 0.0002 -3.3589zm51.8497 -3.2254c-0.301,1.0853 -1.4529,0.8402 -2.6624,0.8402l-49.393 0c-0.5417,-0.0001 -1.1856,0.0807 -1.5928,-0.1605 -0.3319,-0.1965 -0.6512,-0.6697 -0.4883,-1.2909 0.2575,-0.9815 1.6204,-0.8149 2.7116,-0.8149l49.393 -0.0001c0.5983,-0.0004 1.1274,-0.0572 1.5674,0.2129 0.3393,0.2082 0.6116,0.6828 0.4645,1.2133zm-50.6895 -4.554c-0.2892,-1.4421 0.9681,-2.6439 2.2775,-2.6172 0.9655,0.0197 1.2641,-0.1313 1.709,-0.7184 0.4331,-0.5715 0.5756,-0.8036 1.2585,-1.1931 1.2521,-0.7141 2.7536,-0.4626 3.7117,0.3012 0.5339,0.4257 0.7015,0.8391 1.1719,1.2782 0.8068,0.753 2.3984,-0.3078 3.3896,1.5148 0.2534,0.466 0.426,1.5334 0.0587,2.0166 -0.307,0.404 -1.5667,0.2254 -2.1917,0.2256 -3.2438,0.0011 -6.5797,-0.0294 -9.8086,0.0118 -1.0658,0.0136 -1.3776,0.1728 -1.5766,-0.8195zm28.8345 -16.8772c-0.0378,-1.4296 0.1053,-2.2109 0.8169,-3.0396 1.3101,-1.5258 3.6002,-1.732 5.2373,-0.0152 0.7501,0.7865 0.8502,1.6648 0.805,3.0553l-6.8592 -0.0005zm4.7522 -6.4491c0.1248,-2.54 3.3265,-5.2143 6.4731,-4.6458 3.0718,0.5551 4.9022,2.7677 4.9109,6.3232l-0.0272 22.4188 -28.8973 -0.0011c0.0183,-1.6943 0.1304,-2.3339 -0.6414,-3.5946 -1.3959,-2.2799 -3.5322,-1.863 -4.0659,-2.3821 -0.3902,-0.3796 -0.6366,-0.6622 -1.1508,-1.021 -2.0468,-1.4281 -4.4464,-1.4017 -6.5432,-0.0428 -0.4904,0.3179 -0.7781,0.6353 -1.1659,1.0093 -0.4091,0.3946 -1.0424,0.3193 -1.6555,0.5176 -1.1382,0.368 -1.9021,1.0712 -2.4498,1.892l-0.7225 3.6309c-1.954,0.1349 -2.6184,0.9996 -3.3242,2.48 -0.3352,0.703 -0.1447,1.7998 0.1571,2.4288 0.3291,0.686 0.7747,1.2078 1.3703,1.5762 0.4356,0.2695 0.6011,0.1438 0.6088,0.7894 0.033,2.7871 -0.2438,7.5214 0.488,9.814 0.9253,2.8989 2.6516,4.0641 4.9146,5.3125 0.416,0.2295 0.4085,0.4891 0.389,1.0606l-0.0347 2.8654c0.0224,0.4657 0.1467,0.81 0.3865,1.0798 0.3615,0.407 0.459,0.3342 1.1418,0.3313l5.8865 -0.0014c0.1312,-0.2343 0.4216,-0.5036 0.593,-0.7405 0.5781,-0.7989 1.5394,-3.0685 1.834,-3.4891 0.2445,-0.3492 0.4795,-0.3522 0.9315,-0.351 0.913,0.0026 1.8239,-0.0112 2.7355,-0.0104 5.3833,0.0042 10.8042,-0.0431 16.1842,0.0001 3.28,0.0263 2.9348,-0.3861 3.8594,1.4982 0.3173,0.6467 0.9733,2.0652 1.4165,2.5788 0.3094,0.3585 0.2665,0.5224 0.8853,0.5192 1.7982,-0.0091 3.6005,-0.0109 5.3989,-0.0042 0.584,0.0022 0.7568,0.0848 1.0888,-0.2437 0.1996,-0.1975 0.3732,-0.5156 0.4302,-0.8972 0.0912,-0.6114 0.0112,-1.9521 0.0112,-2.6434 0,-2.361 -0.0122,-0.801 2.5257,-2.881 2.0331,-1.6662 3.2271,-3.779 3.2305,-7.5581 0.0016,-1.7981 0.0005,-3.5964 0.0004,-5.3947 0,-1.5408 -0.0368,-1.1225 0.8474,-1.8142 2.7654,-2.1631 0.8713,-5.1518 0.2472,-5.4489l-4.5512 -0.8294c-0.0097,-3.8644 -0.0006,-7.73 -0.0006,-11.5946 0,-3.7689 0.1296,-7.7756 -0.0207,-11.5151 -0.4002,-9.96 -13.8719,-10.8499 -15.9681,-1.6943 -0.2761,1.2056 -0.8167,0.4358 -2.6278,1.7858 -2.1589,1.6092 -2.2251,3.8675 -2.1779,6.4526 0.0198,1.0841 0.619,1.2643 1.6914,1.2607 1.9149,-0.0064 3.8301,0.0047 5.7451,-0.0003 0.9386,-0.0025 1.9465,0.0371 2.8753,0.0007 1.0233,-0.0402 1.2648,-0.658 1.2596,-1.6841 -0.0106,-2.0857 -0.0681,-3.3674 -1.0483,-4.7685 -0.8194,-1.1715 -1.8518,-1.8967 -3.4447,-2.3744z"/>
   <path id="_211117768" class="fil1" d="M5.3202 41.1029l0.0086 3.1228c0.8789,0.1274 44.0202,0.023 49.3216,-0.0156l-0.0004 -3.1325c-0.4822,-0.1426 -23.5051,-0.044 -24.6614,-0.044 -2.4415,0 -24.2355,-0.0951 -24.6684,0.0693z"/>
   <path id="_211118008" class="fil1" d="M35.1772 16.3088l6.8592 0.0005c0.0452,-1.3905 -0.0549,-2.2688 -0.805,-3.0553 -1.6371,-1.7168 -3.9272,-1.5106 -5.2373,0.0152 -0.7116,0.8287 -0.8547,1.61 -0.8169,3.0396z"/>
   <path id="_211116856" class="fil2" d="M5.3202 41.1029c0.4329,-0.1644 22.2269,-0.0693 24.6684,-0.0693 1.1563,0 24.1792,-0.0986 24.6614,0.044l0.0004 3.1325c-5.3014,0.0386 -48.4427,0.143 -49.3216,0.0156l-0.0086 -3.1228zm-0.1379 3.2214l49.5804 0.0066 0.0025 -3.3394 -49.5827 -0.0261 -0.0002 3.3589z"/>
   <path id="_211117288" class="fil0" d="M42.8567 25.2358c-1.3999,0.4583 -0.7324,2.6908 0.7247,2.2097 1.4916,-0.4926 0.7524,-2.6932 -0.7247,-2.2097z"/>
   <path id="_211117192" class="fil0" d="M42.8613 29.8633c-0.5075,0.1654 -0.9488,0.7648 -0.7432,1.4163 0.1561,0.4948 0.7575,1.0351 1.4652,0.791 1.4721,-0.508 0.7698,-2.6935 -0.722,-2.2073z"/>
   <path id="_211117504" class="fil0" d="M38.2364 25.2429c-1.44,0.4951 -0.6732,2.728 0.7761,2.1884 1.4082,-0.5244 0.6751,-2.6871 -0.7761,-2.1884z"/>
   <path id="_211117312" class="fil0" d="M42.8761 20.6319c-1.5387,0.5251 -0.657,2.6816 0.7552,2.1702 1.4166,-0.513 0.6953,-2.6651 -0.7552,-2.1702z"/>
   <path id="_211117000" class="fil0" d="M38.2436 29.8681c-1.5085,0.486 -0.6078,2.7386 0.7725,2.1891 1.3808,-0.5498 0.7031,-2.6645 -0.7725,-2.1891z"/>
   <path id="_211116712" class="fil0" d="M33.6214 25.248c-1.4549,0.4989 -0.6637,2.7096 0.7729,2.1877 1.361,-0.4945 0.719,-2.6994 -0.7729,-2.1877z"/>
   <path id="_211116568" class="fil0" d="M33.6236 29.8714c-1.477,0.4828 -0.6198,2.7259 0.7699,2.188 1.3699,-0.5301 0.7273,-2.6775 -0.7699,-2.188z"/>
   <path id="_211116016" class="fil0" d="M38.2615 20.638c-1.5255,0.5352 -0.6931,2.6444 0.7449,2.1654 1.3144,-0.4377 0.7775,-2.6994 -0.7449,-2.1654z"/>
   <path id="_211116304" class="fil0" d="M33.6409 20.6408c-0.71,0.2657 -0.9426,0.916 -0.7305,1.4969 0.1772,0.4855 0.774,0.8864 1.4758,0.6679 1.3479,-0.4196 0.7409,-2.7209 -0.7453,-2.1648z"/>
  </g>
 </g>
</svg>
