<?xml version="1.0" encoding="UTF-8"?>
<!DOCTYPE svg PUBLIC "-//W3C//DTD SVG 1.1//EN" "http://www.w3.org/Graphics/SVG/1.1/DTD/svg11.dtd">
<!-- Creator: CorelDRAW -->
<svg xmlns="http://www.w3.org/2000/svg" xml:space="preserve" width="60mm" height="65mm" style="shape-rendering:geometricPrecision; text-rendering:geometricPrecision; image-rendering:optimizeQuality; fill-rule:evenodd; clip-rule:evenodd"
viewBox="0 0 60 65"
 xmlns:xlink="http://www.w3.org/1999/xlink">
 <defs>
  <style type="text/css">
   <![CDATA[
    .fil0 {fill:#113648}
    .fil2 {fill:#C8A769}
    .fil1 {fill:#ECA43E}
   ]]>
  </style>
 </defs>
 <g id="Capa_x0020_1">
  <metadata id="CorelCorpID_0Corel-Layer"/>
  <g id="_206516112">
   <path id="_206515200" class="fil0" d="M23.2175 42.4702l13.0343 0.007 -0.0024 13.9111c-0.137,0.2768 0.0636,0.0398 -0.1613,0.1229 -0.2304,0.0852 -12.8705,0.018 -13.0079,0.0179 -0.0696,-4.3066 0.0164,-8.8582 -0.0031,-13.2231 -0.0022,-0.5191 -0.0782,-0.6762 0.1404,-0.8358zm-2.0562 14.0588c-4.6125,0.0624 -9.6082,-0.0828 -14.1749,0.0017l0.003 -20.2108c0,-0.6622 0.0041,-1.3241 0.004,-1.9863 -0.0003,-1.8099 -0.1295,-1.3877 1.3996,-2.6343 0.3975,-0.324 0.7519,-0.6156 1.1301,-0.9239 0.7659,-0.6244 1.4642,-1.1973 2.2568,-1.8506 2.9684,-2.4468 5.9351,-4.7833 8.9139,-7.2505 1.4714,-1.2186 2.9401,-2.4236 4.4538,-3.6285l4.5084 -3.6457c0.3376,0.1127 6.0009,4.7738 6.7393,5.3879 4.4289,3.6833 9.0038,7.2614 13.3916,10.9218 2.6948,2.248 2.6078,1.6022 2.6077,3.4183l-0.0145 22.3949 -14.1588 0.0004c-0.0195,-1.4895 0.0626,-14.7147 -0.0316,-15.2455 -0.1804,-1.0163 -1.2915,-0.7819 -2.3009,-0.7819l-12.2601 0c-0.9679,0 -2.1701,-0.2144 -2.4091,0.6754 -0.1482,0.5515 -0.0583,14.0819 -0.0583,15.3576zm28.343 -33.5785c-0.3023,-0.1753 -0.7023,-0.533 -1.0264,-0.7948l-2.0183 -1.6121c-0.4486,-0.3733 -0.6667,-0.3324 -0.6656,-1.0706 0.0035,-2.4109 -0.0424,-4.8272 -0.0182,-7.2413l3.7406 -0.0342 -0.0121 10.753zm-46.679 8.1489c0.3056,-0.3296 2.7967,-2.2642 3.3561,-2.7062 5.6041,-4.4279 11.1825,-8.9567 16.7866,-13.4191 0.6012,-0.4787 6.2639,-4.9589 6.6729,-5.36 4.5709,3.5647 9.0204,7.2288 13.5228,10.733 2.2685,1.7656 4.4525,3.609 6.7313,5.3899 2.2596,1.766 4.5252,3.5966 6.7307,5.385l-1.4034 1.4399 -12.7141 -10.2588c-3.1302,-2.5646 -6.3728,-5.2469 -9.5108,-7.7482 -3.5716,-2.8468 -2.8765,-3.0135 -5.0231,-1.2878l-20.572 16.7582c-0.5482,0.4496 -2.7211,2.2848 -3.1567,2.5269l-1.4203 -1.4528zm51.5137 3.3956c1.2218,0.6527 1.4363,0.2336 2.1643,-0.5057 0.5619,-0.5707 1.0772,-1.0779 1.6417,-1.6457 0.537,-0.5401 1.4206,-1.1799 0.4987,-2.0677 -0.4436,-0.4272 -4.8703,-3.8965 -5.5234,-4.4092 -0.647,-0.508 -1.5525,-1.0717 -1.647,-1.6323 -0.0814,-0.4826 -0.0164,-8.9758 -0.0164,-9.9004 0,-4.2112 0.5109,-4.1105 -2.5547,-4.1106 -1.1186,0 -2.2377,0.0031 -3.3562,-0.0003 -1.4904,-0.0047 -1.6665,0.1913 -1.6631,1.6452 0.0051,2.1828 0.0091,4.3737 0,6.5567 -2.0348,-1.5465 -4.1405,-3.2131 -6.1023,-4.8199 -2.0193,-1.6539 -4.0201,-3.2328 -6.0494,-4.8388 -1.9384,-1.534 -1.7958,-1.8206 -3.3534,-0.5757l-15.1135 12.0802c-2.021,1.6196 -4.0081,3.2093 -6.0524,4.8368 -1.791,1.4258 -4.3648,3.4199 -6.0363,4.8559 -0.5136,0.4413 -1.2952,0.9634 -0.5867,1.6573 0.2468,0.2417 0.4316,0.4803 0.6702,0.7013 0.2954,0.2736 0.4361,0.4111 0.6886,0.6782 0.4617,0.4886 0.8868,0.9064 1.3544,1.3861 0.7441,0.7632 0.9007,0.5507 1.7614,0.0881l0.0022 21.297c0,0.8645 -0.2044,2.2131 0.4501,2.5664 0.5071,0.2738 5.0233,0.128 5.9899,0.128l30.4103 0c1.546,0 11.3929,0.178 11.997,-0.1468 0.6192,-0.3328 0.4024,-1.844 0.4042,-2.6846 0.0048,-2.2639 -0.0701,-20.417 0.0218,-21.1395z"/>
   <path id="_206515176" class="fil1" d="M36.2494 56.3883l0.0024 -13.9111 -13.0343 -0.007c-0.1953,0.5842 -0.0191,12.2851 -0.0059,13.9213 0.4091,0.0888 12.376,0.0911 13.0378,-0.0032z"/>
   <path id="_206521896" class="fil1" d="M2.8253 31.0994l1.4203 1.4528c0.4356,-0.2421 2.6085,-2.0773 3.1567,-2.5269l20.572 -16.7582c2.1466,-1.7257 1.4515,-1.559 5.0231,1.2878 3.138,2.5013 6.3806,5.1836 9.5108,7.7482l12.7141 10.2588 1.4034 -1.4399c-2.2055,-1.7884 -4.4711,-3.619 -6.7307,-5.385 -2.2788,-1.7809 -4.4628,-3.6243 -6.7313,-5.3899 -4.5024,-3.5042 -8.9519,-7.1683 -13.5228,-10.733 -0.409,0.4011 -6.0717,4.8813 -6.6729,5.36 -5.6041,4.4624 -11.1825,8.9912 -16.7866,13.4191 -0.5594,0.442 -3.0505,2.3766 -3.3561,2.7062z"/>
   <path id="_206516136" class="fil1" d="M49.5043 22.9505l0.0121 -10.753 -3.7406 0.0342c-0.0242,2.4141 0.0217,4.8304 0.0182,7.2413 -0.0011,0.7382 0.217,0.6973 0.6656,1.0706l2.0183 1.6121c0.3241,0.2618 0.7241,0.6195 1.0264,0.7948z"/>
   <path id="_206516496" class="fil2" d="M36.2494 56.3883c-0.6618,0.0943 -12.6287,0.092 -13.0378,0.0032 -0.0132,-1.6362 -0.1894,-13.3371 0.0059,-13.9213 -0.2186,0.1596 -0.1426,0.3167 -0.1404,0.8358 0.0195,4.3649 -0.0665,8.9165 0.0031,13.2231 0.1374,0.0001 12.7775,0.0673 13.0079,-0.0179 0.2249,-0.0831 0.0243,0.1539 0.1613,-0.1229z"/>
  </g>
 </g>
</svg>
