<?xml version="1.0" encoding="UTF-8"?>
<!DOCTYPE svg PUBLIC "-//W3C//DTD SVG 1.1//EN" "http://www.w3.org/Graphics/SVG/1.1/DTD/svg11.dtd">
<!-- Creator: CorelDRAW -->
<svg xmlns="http://www.w3.org/2000/svg" xml:space="preserve" width="260mm" height="70mm" style="shape-rendering:geometricPrecision; text-rendering:geometricPrecision; image-rendering:optimizeQuality; fill-rule:evenodd; clip-rule:evenodd"
viewBox="0 0 260 70"
 xmlns:xlink="http://www.w3.org/1999/xlink">
 <defs>
  <style type="text/css">
   <![CDATA[
    .fil1 {fill:white}
    .fil0 {fill:white;fill-rule:nonzero}
   ]]>
  </style>
 </defs>
 <g id="Capa_x0020_1">
  <metadata id="CorelCorpID_0Corel-Layer"/>
  <g id="_408850136">
   <path id="_408834056" class="fil0" d="M86.6541 41.2494c-2.4424,0 -4.7115,-0.3996 -6.8071,-1.1986 -2.0957,-0.7991 -3.9124,-1.9374 -5.4503,-3.4149 -1.5378,-1.4775 -2.7364,-3.2114 -3.5958,-5.2015 -0.8593,-1.9901 -1.289,-4.1762 -1.289,-6.5584 0,-2.3821 0.4297,-4.5682 1.289,-6.5583 0.8594,-1.9902 2.0656,-3.724 3.6185,-5.2015 1.5529,-1.4775 3.3696,-2.6158 5.4502,-3.4149 2.0806,-0.7991 4.3572,-1.1986 6.8298,-1.1986 2.7439,0 5.224,0.4749 7.4403,1.4247 2.2163,0.9499 4.0783,2.3445 5.586,4.1838l-4.704 4.3421c-1.0855,-1.2363 -2.2917,-2.1635 -3.6184,-2.7816 -1.3268,-0.6182 -2.7741,-0.9272 -4.3421,-0.9272 -1.4775,0 -2.8344,0.2412 -4.0707,0.7236 -1.2363,0.4825 -2.3068,1.176 -3.2114,2.0806 -0.9046,0.9046 -1.6056,1.9751 -2.1032,3.2114 -0.4975,1.2363 -0.7463,2.6083 -0.7463,4.1159 0,1.5077 0.2488,2.8797 0.7463,4.116 0.4976,1.2363 1.1986,2.3067 2.1032,3.2113 0.9046,0.9046 1.9751,1.5982 3.2114,2.0806 1.2363,0.4825 2.5932,0.7237 4.0707,0.7237 1.568,0 3.0153,-0.3091 4.3421,-0.9272 1.3267,-0.6182 2.5329,-1.5605 3.6184,-2.8269l4.704 4.3421c-1.5077,1.8393 -3.3697,3.2415 -5.586,4.2064 -2.2163,0.9649 -4.7115,1.4474 -7.4856,1.4474z"/>
   <path id="_4088340561" class="fil0" d="M100.088 40.7066l14.1119 -31.6611 7.2368 0 14.157 31.6611 -7.6891 0 -11.5789 -27.9523 2.8947 0 -11.6242 27.9523 -7.5082 0zm7.0559 -6.7845l1.9449 -5.5633 16.2829 0 1.9901 5.5633 -20.2179 0z"/>
   <path id="_40883405612" class="fil0" d="M138.895 40.7066l0 -31.6611 13.5238 0c4.4024,0 7.8249,1.0176 10.2673,3.053 2.4424,2.0354 3.6636,4.8472 3.6636,8.4354 0,2.352 -0.5578,4.3798 -1.6735,6.0835 -1.1157,1.7037 -2.6987,3.0078 -4.7491,3.9124 -2.0505,0.9046 -4.4929,1.3569 -7.3273,1.3569l-9.6341 0 3.2566 -3.2113 0 12.0312 -7.3273 0zm20.1274 0l-7.9152 -11.4885 7.8248 0 8.0057 11.4885 -7.9153 0zm-12.8001 -11.2171l-3.2566 -3.4375 9.227 0c2.2615,0 3.9501,-0.49 5.0658,-1.47 1.1156,-0.98 1.6735,-2.3293 1.6735,-4.0481 0,-1.7489 -0.5579,-3.1058 -1.6735,-4.0707 -1.1157,-0.9649 -2.8043,-1.4474 -5.0658,-1.4474l-9.227 0 3.2566 -3.4827 0 17.9564z"/>
   <path id="_408834056123" class="fil0" d="M172.139 40.7066l0 -31.6611 13.7048 0c2.8344,0 5.2768,0.4598 7.3273,1.3795 2.0504,0.9197 3.6334,2.2389 4.7491,3.9576 1.1157,1.7188 1.6735,3.7692 1.6735,6.1513 0,2.352 -0.5578,4.3874 -1.6735,6.1061 -1.1157,1.7188 -2.6987,3.038 -4.7491,3.9577 -2.0505,0.9196 -4.4929,1.3795 -7.3273,1.3795l-9.6341 0 3.2566 -3.3018 0 12.0312 -7.3273 0zm7.3273 -11.2171l-3.2566 -3.4827 9.227 0c2.2615,0 3.9501,-0.4825 5.0658,-1.4474 1.1156,-0.9649 1.6735,-2.3067 1.6735,-4.0255 0,-1.7489 -0.5579,-3.1058 -1.6735,-4.0707 -1.1157,-0.9649 -2.8043,-1.4474 -5.0658,-1.4474l-9.227 0 3.2566 -3.4827 0 17.9564z"/>
   <polygon id="_4088340561234" class="fil0" points="205.248,40.7066 205.248,9.0455 212.575,9.0455 212.575,40.7066 "/>
   <path id="_40883405612345" class="fil0" d="M235.462 41.2494c-2.5028,0 -4.817,-0.4071 -6.9429,-1.2213 -2.1258,-0.8141 -3.9651,-1.9599 -5.518,-3.4374 -1.5529,-1.4776 -2.7591,-3.2114 -3.6185,-5.2015 -0.8593,-1.9902 -1.289,-4.1612 -1.289,-6.5132 0,-2.3519 0.4297,-4.523 1.289,-6.5131 0.8594,-1.9901 2.0731,-3.724 3.6411,-5.2015 1.568,-1.4775 3.4073,-2.6233 5.5181,-3.4375 2.1107,-0.8141 4.4024,-1.2212 6.8749,-1.2212 2.5028,0 4.802,0.4071 6.8977,1.2212 2.0956,0.8142 3.9199,1.96 5.4728,3.4375 1.5529,1.4775 2.7666,3.2038 3.641,5.1789 0.8745,1.975 1.3117,4.1536 1.3117,6.5357 0,2.352 -0.4372,4.5306 -1.3117,6.5358 -0.8744,2.0052 -2.0881,3.739 -3.641,5.2015 -1.5529,1.4624 -3.3772,2.6007 -5.4728,3.4148 -2.0957,0.8142 -4.3798,1.2213 -6.8524,1.2213zm-0.0453 -6.2418c1.4173,0 2.7214,-0.2412 3.9125,-0.7237 1.191,-0.4824 2.2389,-1.176 3.1435,-2.0806 0.9046,-0.9046 1.6056,-1.975 2.1032,-3.2113 0.4975,-1.2363 0.7463,-2.6083 0.7463,-4.116 0,-1.5076 -0.2488,-2.8796 -0.7463,-4.1159 -0.4976,-1.2363 -1.1911,-2.3068 -2.0806,-3.2114 -0.8896,-0.9046 -1.9374,-1.5981 -3.1435,-2.0806 -1.2062,-0.4824 -2.5178,-0.7236 -3.9351,-0.7236 -1.4172,0 -2.7213,0.2412 -3.9124,0.7236 -1.191,0.4825 -2.2389,1.176 -3.1435,2.0806 -0.9046,0.9046 -1.6056,1.9751 -2.1032,3.2114 -0.4975,1.2363 -0.7463,2.6083 -0.7463,4.1159 0,1.4775 0.2488,2.842 0.7463,4.0934 0.4976,1.2513 1.1911,2.3293 2.0806,3.2339 0.8895,0.9046 1.9374,1.5982 3.1435,2.0806 1.2062,0.4825 2.5178,0.7237 3.935,0.7237z"/>
   <polygon id="_408850616" class="fil1" points="8.9053,49.1605 8.9053,42.9646 28.1641,53.5471 47.2291,42.9646 47.2291,49.2574 28.0671,60.3173 "/>
   <polygon id="_408849824" class="fil1" points="8.9053,37.817 8.9053,31.6211 28.1641,42.2036 47.2291,31.6211 47.2291,37.9103 28.0671,48.9703 "/>
   <polygon id="_408849800" class="fil1" points="47.326,19.1289 47.2291,25.8991 28.4477,37.4364 8.9053,25.9961 8.9053,19.8935 28.0671,8.55 28.0671,14.7459 15.0078,22.9915 28.5267,30.6662 "/>
   <path id="_408849752" class="fil0" d="M76.8041 60.5773l0 -12.1214 4.174 0c0.9427,0 1.6623,0.0592 2.159,0.175 0.6943,0.158 1.287,0.4487 1.778,0.8664 0.6379,0.5418 1.1176,1.2305 1.4337,2.0715 0.3189,0.841 0.477,1.8006 0.477,2.8815 0,0.92 -0.1073,1.7356 -0.3246,2.4468 -0.2145,0.7112 -0.4882,1.3011 -0.8269,1.7667 -0.3358,0.4657 -0.7027,0.8326 -1.1035,1.0979 -0.3979,0.2681 -0.8805,0.4713 -1.4449,0.6096 -0.5673,0.1383 -1.2164,0.206 -1.9474,0.206l-4.3744 0zm1.603 -1.4309l2.588 0c0.7987,0 1.428,-0.0733 1.8824,-0.2229 0.4544,-0.1496 0.8156,-0.3584 1.0866,-0.6294 0.3809,-0.3782 0.6773,-0.8918 0.8889,-1.5324 0.2117,-0.6435 0.319,-1.4196 0.319,-2.3368 0,-1.2672 -0.2089,-2.2409 -0.6238,-2.921 -0.4176,-0.683 -0.9228,-1.1374 -1.5183,-1.3688 -0.429,-0.1665 -1.1232,-0.2484 -2.0743,-0.2484l-2.5485 0 0 9.2597z"/>
   <path id="_4088497521" class="fil0" d="M88.8493 50.169l0 -1.7131 1.4902 0 0 1.7131 -1.4902 0zm0 10.4083l0 -8.7799 1.4902 0 0 8.7799 -1.4902 0z"/>
   <path id="_40884975212" class="fil0" d="M92.0102 57.9555l1.4704 -0.2315c0.0818,0.5899 0.3133,1.0414 0.6914,1.3575 0.3754,0.3133 0.9031,0.4713 1.5833,0.4713 0.683,0 1.191,-0.1411 1.5212,-0.4177 0.3302,-0.2794 0.4967,-0.6067 0.4967,-0.9793 0,-0.3386 -0.1468,-0.6011 -0.4403,-0.7958 -0.2032,-0.1327 -0.7112,-0.2992 -1.5212,-0.5024 -1.0893,-0.2766 -1.8485,-0.5136 -2.269,-0.7168 -0.4205,-0.2004 -0.7423,-0.4798 -0.9596,-0.8354 -0.2173,-0.3556 -0.3274,-0.7479 -0.3274,-1.1769 0,-0.3923 0.0904,-0.7535 0.271,-1.0865 0.1778,-0.3359 0.4233,-0.6124 0.7309,-0.8326 0.2315,-0.1693 0.5475,-0.3161 0.9455,-0.4346 0.4007,-0.1185 0.8297,-0.1778 1.2869,-0.1778 0.6886,0 1.2926,0.1016 1.8147,0.2992 0.5221,0.1975 0.9059,0.4656 1.1543,0.8043 0.2483,0.3415 0.4177,0.793 0.5108,1.3603l-1.4534 0.2004c-0.0678,-0.4516 -0.2597,-0.8044 -0.5758,-1.0584 -0.3161,-0.254 -0.7648,-0.381 -1.3434,-0.381 -0.6829,0 -1.1712,0.1129 -1.4619,0.3387 -0.2935,0.2258 -0.4402,0.4911 -0.4402,0.7931 0,0.1947 0.0621,0.3668 0.1834,0.5221 0.1214,0.1608 0.3105,0.2907 0.5701,0.3979 0.1496,0.0536 0.587,0.1806 1.3152,0.3782 1.0526,0.2822 1.7864,0.5108 2.2013,0.6914 0.4177,0.1778 0.7451,0.4403 0.9821,0.7818 0.2371,0.3415 0.3556,0.7648 0.3556,1.2728 0,0.4967 -0.1467,0.9624 -0.4346,1.4026 -0.2907,0.4375 -0.7084,0.7761 -1.2531,1.016 -0.5447,0.2399 -1.1627,0.3585 -1.8513,0.3585 -1.143,0 -2.0123,-0.2371 -2.6106,-0.7112 -0.5983,-0.4742 -0.9793,-1.1769 -1.143,-2.1082z"/>
   <path id="_408849752123" class="fil0" d="M107.081 57.7494l1.5381 0.1891c-0.2427,0.9003 -0.6914,1.5974 -1.3462,2.0941 -0.6576,0.4939 -1.4958,0.7423 -2.5146,0.7423 -1.2841,0 -2.3029,-0.3952 -3.0536,-1.1854 -0.7536,-0.7902 -1.1289,-1.8993 -1.1289,-3.3274 0,-1.4788 0.381,-2.6246 1.1402,-3.4403 0.762,-0.8156 1.7469,-1.2248 2.9605,-1.2248 1.174,0 2.1336,0.4008 2.8758,1.1994 0.7451,0.7987 1.1176,1.9248 1.1176,3.3726 0,0.0903 -0.0028,0.223 -0.0085,0.3979l-6.5475 0c0.0536,0.9652 0.3274,1.7046 0.8184,2.2155 0.4911,0.5136 1.1007,0.7704 1.8345,0.7704 0.5447,0 1.0103,-0.1439 1.397,-0.4318 0.3866,-0.285 0.6914,-0.7422 0.9172,-1.3716zm-4.8853 -2.4073l4.9022 0c-0.0649,-0.7366 -0.254,-1.2926 -0.5616,-1.6595 -0.4741,-0.5729 -1.0894,-0.8608 -1.8429,-0.8608 -0.683,0 -1.2587,0.2286 -1.7244,0.6858 -0.4656,0.4572 -0.7225,1.0697 -0.7733,1.8345z"/>
   <path id="_4088497521234" class="fil0" d="M110.49 60.5773l0 -8.7799 1.3377 0 0 1.2474c0.6463,-0.9652 1.5776,-1.4478 2.794,-1.4478 0.5306,0 1.016,0.096 1.4591,0.2851 0.4459,0.1919 0.7761,0.4402 0.9963,0.7507 0.2229,0.3076 0.3753,0.6745 0.4656,1.0978 0.0536,0.2766 0.0819,0.7592 0.0819,1.4478l0 5.3989 -1.4902 0 0 -5.3425c0,-0.6039 -0.0564,-1.0583 -0.1721,-1.3603 -0.1157,-0.2991 -0.3218,-0.539 -0.6153,-0.7168 -0.2963,-0.1806 -0.6406,-0.2709 -1.0385,-0.2709 -0.635,0 -1.1797,0.2032 -1.6426,0.6039 -0.46,0.4036 -0.6886,1.1656 -0.6886,2.2917l0 4.7949 -1.4873 0zm1.0499 -10.0781c-0.0057,-0.5729 0.1495,-1.033 0.4713,-1.3745 0.3132,-0.3414 0.714,-0.5108 1.2051,-0.5108 0.3414,0 0.8071,0.1468 1.397,0.4459 0.3273,0.1665 0.5842,0.2484 0.7789,0.2484 0.175,0 0.3104,-0.048 0.4036,-0.1439 0.0959,-0.0988 0.1608,-0.2879 0.2003,-0.5758l1.0725 0c-0.0141,0.6294 -0.175,1.1007 -0.4741,1.414 -0.2992,0.3132 -0.683,0.4713 -1.1459,0.4713 -0.3471,0 -0.8043,-0.1553 -1.3716,-0.4629 -0.3697,-0.1975 -0.6406,-0.2991 -0.8099,-0.2991 -0.1891,0 -0.3387,0.0677 -0.4544,0.2003 -0.1214,0.1327 -0.1806,0.3274 -0.175,0.5871l-1.0978 0z"/>
   <path id="_40884975212345" class="fil0" d="M119.352 56.1859c0,-1.6256 0.4516,-2.8307 1.3575,-3.6124 0.7535,-0.6491 1.6736,-0.9765 2.7601,-0.9765 1.2079,0 2.1957,0.3951 2.9605,1.1882 0.7677,0.7902 1.1487,1.8824 1.1487,3.2766 0,1.1317 -0.1694,2.0207 -0.508,2.6669 -0.3387,0.6492 -0.8326,1.1515 -1.4789,1.5099 -0.6491,0.3585 -1.3546,0.5363 -2.1223,0.5363 -1.2276,0 -2.221,-0.3923 -2.9802,-1.1826 -0.7592,-0.7874 -1.1374,-1.9219 -1.1374,-3.4064zm1.5297 0c0,1.1261 0.2455,1.9671 0.7366,2.5259 0.491,0.5616 1.1091,0.841 1.8513,0.841 0.7395,0 1.3547,-0.2822 1.8458,-0.8438 0.4882,-0.5616 0.7337,-1.4196 0.7337,-2.571 0,-1.0866 -0.2455,-1.9107 -0.7394,-2.4695 -0.4939,-0.5588 -1.1063,-0.8382 -1.8401,-0.8382 -0.7422,0 -1.3603,0.2794 -1.8513,0.8354 -0.4911,0.556 -0.7366,1.397 -0.7366,2.5202z"/>
   <path id="_408849752123456" class="fil0" d="M140.959 59.1464c-0.491,0.5475 -1.0272,0.9568 -1.6058,1.2277 -0.5786,0.2738 -1.2051,0.4092 -1.8768,0.4092 -1.2389,0 -2.2239,-0.4177 -2.952,-1.2559 -0.5899,-0.6829 -0.8834,-1.4478 -0.8834,-2.2916 0,-0.7479 0.2399,-1.4252 0.7225,-2.0292 0.4826,-0.6039 1.2023,-1.1345 2.1618,-1.5917 -0.5447,-0.6265 -0.9087,-1.1374 -1.0893,-1.5297 -0.1835,-0.3894 -0.2738,-0.7676 -0.2738,-1.1317 0,-0.7281 0.2851,-1.3603 0.8551,-1.8993 0.5701,-0.5362 1.2898,-0.8043 2.1534,-0.8043 0.8269,0 1.5042,0.254 2.032,0.7591 0.5249,0.508 0.7874,1.1176 0.7874,1.8288 0,1.1515 -0.762,2.1364 -2.2888,2.9521l2.1731 2.7686c0.2483,-0.4855 0.4431,-1.0471 0.5785,-1.6849l1.5466 0.3302c-0.2653,1.0583 -0.6209,1.9276 -1.0753,2.6105 0.5588,0.7395 1.1882,1.3604 1.8937,1.8627l-0.999 1.1825c-0.6012,-0.3866 -1.222,-0.9567 -1.8599,-1.7131zm-3.0282 -6.3161c0.6463,-0.381 1.064,-0.714 1.2531,-1.0019 0.1919,-0.285 0.285,-0.6011 0.285,-0.9511 0,-0.412 -0.1298,-0.7507 -0.3923,-1.0103 -0.2624,-0.2625 -0.587,-0.3951 -0.9793,-0.3951 -0.4036,0 -0.7366,0.1298 -1.0047,0.3894 -0.2681,0.2597 -0.4008,0.5758 -0.4008,0.9511 0,0.1863 0.048,0.3839 0.144,0.5927 0.0959,0.206 0.2427,0.4233 0.4346,0.6547l0.6604 0.7705zm2.0941 5.1421l-2.7291 -3.381c-0.8043,0.4798 -1.349,0.9257 -1.6284,1.3349 -0.2822,0.412 -0.4233,0.8184 -0.4233,1.2192 0,0.4911 0.1975,1.0019 0.587,1.5296 0.3923,0.5306 0.9454,0.7931 1.6623,0.7931 0.4459,0 0.9087,-0.1383 1.3857,-0.4177 0.4769,-0.2766 0.8579,-0.6378 1.1458,-1.0781z"/>
   <path id="_4088497521234567" class="fil0" d="M158.866 56.327l1.6058 0.4064c-0.3358,1.3152 -0.9426,2.3199 -1.8147,3.0142 -0.8749,0.6914 -1.9417,1.0357 -3.206,1.0357 -1.3067,0 -2.3679,-0.2653 -3.1863,-0.7958 -0.8184,-0.5334 -1.4422,-1.3039 -1.8683,-2.3114 -0.4262,-1.0104 -0.6407,-2.0941 -0.6407,-3.2512 0,-1.2616 0.2399,-2.3622 0.7225,-3.302 0.4826,-0.9398 1.1684,-1.6538 2.0602,-2.1421 0.889,-0.4882 1.8684,-0.7309 2.938,-0.7309 1.2135,0 2.2323,0.3076 3.0593,0.9256 0.8269,0.6181 1.4026,1.4845 1.7272,2.605l-1.5777 0.3725c-0.2822,-0.8834 -0.6886,-1.524 -1.2248,-1.9276 -0.5334,-0.4036 -1.2051,-0.6039 -2.0179,-0.6039 -0.9313,0 -1.7074,0.2229 -2.334,0.6688 -0.6265,0.4488 -1.0668,1.0471 -1.3179,1.8006 -0.254,0.7507 -0.381,1.5268 -0.381,2.3255 0,1.0329 0.1495,1.9304 0.4487,2.7009 0.302,0.7676 0.7676,1.3433 1.4026,1.7243 0.635,0.381 1.3208,0.5701 2.0603,0.5701 0.8974,0 1.6566,-0.2596 2.2803,-0.7761 0.6237,-0.5193 1.0442,-1.2897 1.2644,-2.3086z"/>
   <path id="_40884975212345678" class="fil0" d="M161.702 56.1859c0,-1.6256 0.4516,-2.8307 1.3575,-3.6124 0.7535,-0.6491 1.6736,-0.9765 2.7601,-0.9765 1.2079,0 2.1957,0.3951 2.9605,1.1882 0.7677,0.7902 1.1487,1.8824 1.1487,3.2766 0,1.1317 -0.1694,2.0207 -0.508,2.6669 -0.3387,0.6492 -0.8326,1.1515 -1.4789,1.5099 -0.6491,0.3585 -1.3546,0.5363 -2.1223,0.5363 -1.2276,0 -2.221,-0.3923 -2.9802,-1.1826 -0.7592,-0.7874 -1.1374,-1.9219 -1.1374,-3.4064zm1.5297 0c0,1.1261 0.2455,1.9671 0.7366,2.5259 0.491,0.5616 1.1091,0.841 1.8513,0.841 0.7395,0 1.3547,-0.2822 1.8458,-0.8438 0.4882,-0.5616 0.7337,-1.4196 0.7337,-2.571 0,-1.0866 -0.2455,-1.9107 -0.7394,-2.4695 -0.4939,-0.5588 -1.1063,-0.8382 -1.8401,-0.8382 -0.7422,0 -1.3603,0.2794 -1.8513,0.8354 -0.4911,0.556 -0.7366,1.397 -0.7366,2.5202z"/>
   <path id="_408849752123456789" class="fil0" d="M171.676 60.5773l0 -8.7799 1.3377 0 0 1.2474c0.6463,-0.9652 1.5776,-1.4478 2.794,-1.4478 0.5306,0 1.016,0.096 1.4591,0.2851 0.4459,0.1919 0.7761,0.4402 0.9963,0.7507 0.2229,0.3076 0.3753,0.6745 0.4656,1.0978 0.0536,0.2766 0.0819,0.7592 0.0819,1.4478l0 5.3989 -1.4902 0 0 -5.3425c0,-0.6039 -0.0564,-1.0583 -0.1721,-1.3603 -0.1157,-0.2991 -0.3218,-0.539 -0.6153,-0.7168 -0.2963,-0.1806 -0.6406,-0.2709 -1.0385,-0.2709 -0.635,0 -1.1797,0.2032 -1.6426,0.6039 -0.46,0.4036 -0.6886,1.1656 -0.6886,2.2917l0 4.7949 -1.4873 0z"/>
   <path id="_40884975212345678910" class="fil0" d="M180.498 57.9555l1.4704 -0.2315c0.0818,0.5899 0.3133,1.0414 0.6914,1.3575 0.3754,0.3133 0.9031,0.4713 1.5833,0.4713 0.683,0 1.191,-0.1411 1.5212,-0.4177 0.3302,-0.2794 0.4967,-0.6067 0.4967,-0.9793 0,-0.3386 -0.1468,-0.6011 -0.4403,-0.7958 -0.2032,-0.1327 -0.7112,-0.2992 -1.5212,-0.5024 -1.0893,-0.2766 -1.8485,-0.5136 -2.269,-0.7168 -0.4205,-0.2004 -0.7423,-0.4798 -0.9596,-0.8354 -0.2173,-0.3556 -0.3274,-0.7479 -0.3274,-1.1769 0,-0.3923 0.0904,-0.7535 0.271,-1.0865 0.1778,-0.3359 0.4233,-0.6124 0.7309,-0.8326 0.2315,-0.1693 0.5475,-0.3161 0.9455,-0.4346 0.4007,-0.1185 0.8297,-0.1778 1.2869,-0.1778 0.6886,0 1.2926,0.1016 1.8147,0.2992 0.5221,0.1975 0.9059,0.4656 1.1543,0.8043 0.2483,0.3415 0.4177,0.793 0.5108,1.3603l-1.4534 0.2004c-0.0678,-0.4516 -0.2597,-0.8044 -0.5758,-1.0584 -0.3161,-0.254 -0.7648,-0.381 -1.3434,-0.381 -0.6829,0 -1.1712,0.1129 -1.4619,0.3387 -0.2935,0.2258 -0.4402,0.4911 -0.4402,0.7931 0,0.1947 0.0621,0.3668 0.1834,0.5221 0.1214,0.1608 0.3105,0.2907 0.5701,0.3979 0.1496,0.0536 0.587,0.1806 1.3152,0.3782 1.0526,0.2822 1.7864,0.5108 2.2013,0.6914 0.4177,0.1778 0.7451,0.4403 0.9821,0.7818 0.2371,0.3415 0.3556,0.7648 0.3556,1.2728 0,0.4967 -0.1467,0.9624 -0.4346,1.4026 -0.2907,0.4375 -0.7084,0.7761 -1.2531,1.016 -0.5447,0.2399 -1.1627,0.3585 -1.8513,0.3585 -1.143,0 -2.0123,-0.2371 -2.6106,-0.7112 -0.5983,-0.4742 -0.9793,-1.1769 -1.143,-2.1082z"/>
   <path id="_4088497521234567891011" class="fil0" d="M192.808 59.2452l0.2145 1.3152c-0.4177,0.0875 -0.7931,0.1326 -1.1233,0.1326 -0.5419,0 -0.9595,-0.0847 -1.2587,-0.2568 -0.2963,-0.1693 -0.5052,-0.3951 -0.6265,-0.6745 -0.1214,-0.2766 -0.1835,-0.8636 -0.1835,-1.7554l0 -5.0518 -1.0922 0 0 -1.1571 1.0922 0 0 -2.1759 1.4817 -0.8919 0 3.0678 1.4958 0 0 1.1571 -1.4958 0 0 5.1336c0,0.4262 0.0254,0.6971 0.0762,0.8184 0.0536,0.1214 0.1383,0.2174 0.2568,0.2907 0.1185,0.0706 0.2879,0.1073 0.508,0.1073 0.1665,0 0.3838,-0.0198 0.6548,-0.0593z"/>
   <path id="_408849752123456789101112" class="fil0" d="M194.248 60.5773l0 -8.7799 1.3377 0 0 1.3292c0.3415,-0.6208 0.6576,-1.0329 0.9483,-1.2304 0.2878,-0.1976 0.6067,-0.2992 0.9539,-0.2992 0.5023,0 1.0103,0.1609 1.5296,0.4798l-0.5136 1.3829c-0.3613,-0.2173 -0.7253,-0.3246 -1.0894,-0.3246 -0.3274,0 -0.6181,0.0988 -0.8777,0.2935 -0.2597,0.1976 -0.4431,0.4685 -0.5532,0.8156 -0.1665,0.5278 -0.2483,1.1064 -0.2483,1.7357l0 4.5974 -1.4873 0z"/>
   <path id="_40884975212345678910111213" class="fil0" d="M205.658 60.5773l0 -1.2898c-0.6858,0.9935 -1.6143,1.4874 -2.7884,1.4874 -0.5164,0 -1.0018,-0.0988 -1.4506,-0.2964 -0.4487,-0.1975 -0.7817,-0.4487 -0.999,-0.7479 -0.2202,-0.3019 -0.3726,-0.6688 -0.4601,-1.1035 -0.0592,-0.2935 -0.0903,-0.7563 -0.0903,-1.3913l0 -5.4384 1.4873 0 0 4.8683c0,0.7789 0.0311,1.301 0.0904,1.572 0.0959,0.3923 0.2935,0.6971 0.5954,0.9228 0.3048,0.223 0.6802,0.3331 1.1261,0.3331 0.4459,0 0.8636,-0.1129 1.2559,-0.3415 0.3923,-0.2286 0.6689,-0.5419 0.8297,-0.9342 0.1637,-0.3951 0.2456,-0.968 0.2456,-1.7159l0 -4.7046 1.4873 0 0 8.7799 -1.3293 0z"/>
   <path id="_4088497521234567891011121314" class="fil0" d="M215.05 57.36l1.4619 0.1919c-0.158,1.0075 -0.5673,1.7977 -1.2277,2.3678 -0.6575,0.5701 -1.4675,0.8552 -2.4271,0.8552 -1.1994,0 -2.1674,-0.3923 -2.8956,-1.1769 -0.7309,-0.7846 -1.0978,-1.9106 -1.0978,-3.3782 0,-0.9483 0.158,-1.778 0.4713,-2.4892 0.3161,-0.7112 0.7931,-1.2446 1.4365,-1.6002 0.6407,-0.3556 1.3406,-0.5334 2.0941,-0.5334 0.9539,0 1.7357,0.2427 2.3396,0.7253 0.6068,0.4826 0.9963,1.1656 1.1684,2.0546l-1.4478 0.2229c-0.1383,-0.5898 -0.381,-1.0329 -0.7309,-1.332 -0.35,-0.2964 -0.7733,-0.446 -1.27,-0.446 -0.7507,0 -1.3603,0.2682 -1.8288,0.8072 -0.4685,0.5362 -0.7028,1.3857 -0.7028,2.5485 0,1.1797 0.2258,2.0376 0.6802,2.5738 0.4515,0.5334 1.0414,0.8015 1.7695,0.8015 0.5842,0 1.0696,-0.1806 1.4619,-0.539 0.3923,-0.3584 0.6407,-0.9088 0.7451,-1.6538z"/>
   <path id="_408849752123456789101112131415" class="fil0" d="M223.517 57.36l1.4619 0.1919c-0.158,1.0075 -0.5673,1.7977 -1.2277,2.3678 -0.6575,0.5701 -1.4675,0.8552 -2.4271,0.8552 -1.1994,0 -2.1674,-0.3923 -2.8956,-1.1769 -0.7309,-0.7846 -1.0978,-1.9106 -1.0978,-3.3782 0,-0.9483 0.158,-1.778 0.4713,-2.4892 0.3161,-0.7112 0.7931,-1.2446 1.4365,-1.6002 0.6407,-0.3556 1.3406,-0.5334 2.0941,-0.5334 0.9539,0 1.7357,0.2427 2.3396,0.7253 0.6068,0.4826 0.9963,1.1656 1.1684,2.0546l-1.4478 0.2229c-0.1383,-0.5898 -0.381,-1.0329 -0.7309,-1.332 -0.35,-0.2964 -0.7733,-0.446 -1.27,-0.446 -0.7507,0 -1.3603,0.2682 -1.8288,0.8072 -0.4685,0.5362 -0.7028,1.3857 -0.7028,2.5485 0,1.1797 0.2258,2.0376 0.6802,2.5738 0.4515,0.5334 1.0414,0.8015 1.7695,0.8015 0.5842,0 1.0696,-0.1806 1.4619,-0.539 0.3923,-0.3584 0.6407,-0.9088 0.7451,-1.6538z"/>
   <path id="_40884975212345678910111213141516" class="fil0" d="M226.26 50.169l0 -1.7131 1.4902 0 0 1.7131 -1.4902 0zm0 10.4083l0 -8.7799 1.4902 0 0 8.7799 -1.4902 0z"/>
   <path id="_4088497521234567891011121314151617" class="fil0" d="M229.461 56.1859c0,-1.6256 0.4516,-2.8307 1.3575,-3.6124 0.7535,-0.6491 1.6736,-0.9765 2.7601,-0.9765 1.2079,0 2.1957,0.3951 2.9605,1.1882 0.7677,0.7902 1.1487,1.8824 1.1487,3.2766 0,1.1317 -0.1694,2.0207 -0.508,2.6669 -0.3387,0.6492 -0.8326,1.1515 -1.4789,1.5099 -0.6491,0.3585 -1.3546,0.5363 -2.1223,0.5363 -1.2276,0 -2.221,-0.3923 -2.9802,-1.1826 -0.7592,-0.7874 -1.1374,-1.9219 -1.1374,-3.4064zm1.5297 0c0,1.1261 0.2455,1.9671 0.7366,2.5259 0.491,0.5616 1.1091,0.841 1.8513,0.841 0.7395,0 1.3547,-0.2822 1.8458,-0.8438 0.4882,-0.5616 0.7337,-1.4196 0.7337,-2.571 0,-1.0866 -0.2455,-1.9107 -0.7394,-2.4695 -0.4939,-0.5588 -1.1063,-0.8382 -1.8401,-0.8382 -0.7422,0 -1.3603,0.2794 -1.8513,0.8354 -0.4911,0.556 -0.7366,1.397 -0.7366,2.5202zm1.761 -5.4807l1.1007 -2.3142 1.9501 0 -1.8175 2.3142 -1.2333 0z"/>
   <path id="_408849752123456789101112131415161718" class="fil0" d="M239.434 60.5773l0 -8.7799 1.3377 0 0 1.2474c0.6463,-0.9652 1.5776,-1.4478 2.794,-1.4478 0.5306,0 1.016,0.096 1.4591,0.2851 0.4459,0.1919 0.7761,0.4402 0.9963,0.7507 0.2229,0.3076 0.3753,0.6745 0.4656,1.0978 0.0536,0.2766 0.0819,0.7592 0.0819,1.4478l0 5.3989 -1.4902 0 0 -5.3425c0,-0.6039 -0.0564,-1.0583 -0.1721,-1.3603 -0.1157,-0.2991 -0.3218,-0.539 -0.6153,-0.7168 -0.2963,-0.1806 -0.6406,-0.2709 -1.0385,-0.2709 -0.635,0 -1.1797,0.2032 -1.6426,0.6039 -0.46,0.4036 -0.6886,1.1656 -0.6886,2.2917l0 4.7949 -1.4873 0z"/>
  </g>
 </g>
</svg>
